<svg width="240" height="60" viewBox="0 0 240 60" fill="none" xmlns="http://www.w3.org/2000/svg">
  <rect x="4" y="8" width="44" height="44" rx="12" fill="url(#paint0_linear)"/>
  <path d="M19 22H33V27H28V40H24V27H19V22Z" fill="#0D1F34"/>
  <path d="M64 24.4H75.4V28H70V31H74.6V34.6H70V41H64V24.4Z" fill="#0D1F34"/>
  <path d="M78.6 33.1C78.6 28.6 82 24 87.8 24C93.6 24 97 28.6 97 33.1C97 37.7 93.6 42.3 87.8 42.3C82 42.3 78.6 37.7 78.6 33.1ZM84.3 33.1C84.3 35.1 85.8 37.1 87.8 37.1C89.8 37.1 91.2 35.1 91.2 33.1C91.2 31.2 89.8 29.2 87.8 29.2C85.8 29.2 84.3 31.2 84.3 33.1Z" fill="#0D1F34"/>
  <path d="M101 24.4H107V37H114.2V41H101V24.4Z" fill="#0D1F34"/>
  <path d="M117.4 24.4H123.4L127 31L130.7 24.4H136.7V41H131.3V32.8L127.8 39H126.1L122.8 32.8V41H117.4V24.4Z" fill="#0D1F34"/>
  <path d="M145.2 24.4H153.6C157.2 24.4 159.5 26.7 159.5 29.7C159.5 32.8 157.2 35.1 153.6 35.1H150.8V41H145.2V24.4ZM150.8 31.7H152.5C153.5 31.7 154.1 31 154.1 30.1C154.1 29.2 153.5 28.5 152.5 28.5H150.8V31.7Z" fill="#0D1F34"/>
  <path d="M161.8 33.1C161.8 28.6 165.2 24 171 24C176.8 24 180.2 28.6 180.2 33.1C180.2 37.7 176.8 42.3 171 42.3C165.2 42.3 161.8 37.7 161.8 33.1ZM167.5 33.1C167.5 35.1 169 37.1 171 37.1C173 37.1 174.4 35.1 174.4 33.1C174.4 31.2 173 29.2 171 29.2C169 29.2 167.5 31.2 167.5 33.1Z" fill="#0D1F34"/>
  <path d="M183.4 24.4H189L193.5 32.1V24.4H199.1V41H193.6L189.1 33.3V41H183.4V24.4Z" fill="#0D1F34"/>
  <path d="M202.4 24.4H216V28.5H208V30.8H215.2V34.6H208V36.9H216V41H202.4V24.4Z" fill="#0D1F34"/>
  <defs>
    <linearGradient id="paint0_linear" x1="4" y1="8" x2="48" y2="52" gradientUnits="userSpaceOnUse">
      <stop stop-color="#3CC9B3"/>
      <stop offset="1" stop-color="#F2B16A"/>
    </linearGradient>
  </defs>
</svg>
